# xmcd CD database file
#
# Track frame offsets:
#	150
#	9273
#	15880
#	20177
#	29644
#	35383
#	46005
#	62629
#	78919
#	90955
#	98484
#	111284
#	128886
#	142867
#	161174
#	184522
#	211858
#	250784
#	261502
#	278411
#	281614
#	291275
#	304093
#
# Disc length: 4388 seconds
#
# Revision: 0
# Processed by: cddbd v1.5.2PL0 Copyright (c) Steve Scherf et al.
# Submitted via: CDex 1.70beta2
#
DISCID=2a112217
DTITLE=Rockman - Oto sae areba...  summer mix two
DYEAR=1900
DGENRE=Jazz
TTITLE0=STARTING
TTITLE1=UPTOWN SHIT - KURIOUS
TTITLE2=THAT'S RIGHT - BRIAN GREEN
TTITLE3=Vernal SUNSHINE - JOHN FORTY
TTITLE4=GANGSTA BITCH - APACHE
TTITLE5=LET IT GO - NICE&SMOOTH
TTITLE6=GOODY GOODY (HIPHOP MIX) - LISETTE MELENDEZ
TTITLE7=FRESH IN MY MIND - A FOREST MIGHTY BLACK
TTITLE8=ON THE STAGE - V.A.
TTITLE9=TUDO QUE VOCE PODIA SER - LO BORGES
TTITLE10=GRESURRECTION - DJ GRIEVOUS
TTITLE11=BINTI - DA LATA
TTITLE12=TONIGHT (moodoramas daylight mix) - JUSTIN
TTITLE13=WELCOME TO SAMBATOWN (WORLDWIDE Vrs) - TONGA feat. D.D.Klein
TTITLE14=MUNDO INFANTIL - UPZ feat. SILVINHA
TTITLE15=IT'S A SHAME (DEEZ MIX) - ILL CASTLE
TTITLE16=Brazilian Rhyme-Saststrumental - Satoru Shionoya feaf. Harumi Tsuyuzaki
TTITLE17=Inochi No Namae - VOLTA MASTERS
TTITLE18=I LIKE IT feat CLEVER - VOLTA MASTERS
TTITLE19=THE FORESEE - DJ NICOPOLSKE
TTITLE20=SKY STROLL - V.A.
TTITLE21=LITTLEST THINGS - LILY ALLEN
TTITLE22=ENDING
EXTD=
EXTT0=
EXTT1=
EXTT2=
EXTT3=
EXTT4=
EXTT5=
EXTT6=
EXTT7=
EXTT8=
EXTT9=
EXTT10=
EXTT11=
EXTT12=
EXTT13=
EXTT14=
EXTT15=
EXTT16=
EXTT17=
EXTT18=
EXTT19=
EXTT20=
EXTT21=
EXTT22=
PLAYORDER=
